<svg data-v-423bf9ae="" xmlns="http://www.w3.org/2000/svg" viewBox="0 0 1160.992758748003 193" class="fontAboveSlogan"><!----><!----><!----><g data-v-423bf9ae="" id="a8b9a306-43b8-4a06-8760-073a717ae58a" fill="#000000" transform="matrix(11.46131671529464,0,0,11.46131671529464,250.8459580732457,-89.64440304849657)"><path d="M2.51 13.20L4.35 10.70L4.12 10.47L0.76 13.20L4.12 15.69L4.35 15.40L2.51 13.20ZM10.39 7.91L10.39 7.91Q11.76 7.91 12.81 8.65L12.81 8.65L12.81 8.65Q13.86 9.39 14.43 10.59L14.43 10.59L14.43 10.59Q14.99 11.79 14.99 13.10L14.99 13.10L14.99 13.10Q14.99 14.46 14.46 15.65L14.46 15.65L14.46 15.65Q13.93 16.83 12.89 17.55L12.89 17.55L12.89 17.55Q11.84 18.27 10.39 18.27L10.39 18.27L10.39 18.27Q9.02 18.27 7.95 17.53L7.95 17.53L7.95 17.53Q6.89 16.79 6.31 15.60L6.31 15.60L6.31 15.60Q5.74 14.41 5.74 13.10L5.74 13.10L5.74 13.10Q5.74 11.75 6.29 10.56L6.29 10.56L6.29 10.56Q6.83 9.37 7.88 8.64L7.88 8.64L7.88 8.64Q8.93 7.91 10.39 7.91L10.39 7.91ZM9.87 8.69L9.87 8.69Q9.03 8.69 8.49 9.22L8.49 9.22L8.49 9.22Q7.95 9.74 7.71 10.54L7.71 10.54L7.71 10.54Q7.48 11.34 7.48 12.18L7.48 12.18L7.48 12.18Q7.48 13.40 7.83 14.61L7.83 14.61L7.83 14.61Q8.19 15.82 8.95 16.63L8.95 16.63L8.95 16.63Q9.72 17.44 10.88 17.44L10.88 17.44L10.88 17.44Q11.70 17.44 12.24 16.91L12.24 16.91L12.24 16.91Q12.78 16.37 13.02 15.56L13.02 15.56L13.02 15.56Q13.26 14.76 13.26 13.93L13.26 13.93L13.26 13.93Q13.26 12.75 12.90 11.54L12.90 11.54L12.90 11.54Q12.54 10.33 11.78 9.51L11.78 9.51L11.78 9.51Q11.02 8.69 9.87 8.69L9.87 8.69ZM16.59 10.47L16.34 10.70L18.19 13.20L16.34 15.40L16.59 15.69L19.94 13.20L16.59 10.47ZM23.20 17.35L23.20 17.35Q23.20 17.72 22.91 18.00L22.91 18.00L22.91 18.00Q22.62 18.27 22.23 18.27L22.23 18.27L22.23 18.27Q21.84 18.27 21.56 18.00L21.56 18.00L21.56 18.00Q21.28 17.74 21.28 17.35L21.28 17.35L21.28 17.35Q21.28 16.97 21.56 16.68L21.56 16.68L21.56 16.68Q21.84 16.39 22.23 16.39L22.23 16.39L22.23 16.39Q22.62 16.39 22.91 16.68L22.91 16.68L22.91 16.68Q23.20 16.97 23.20 17.35L23.20 17.35ZM26.25 17.35L26.25 17.35Q26.25 17.72 25.96 18.00L25.96 18.00L25.96 18.00Q25.68 18.27 25.28 18.27L25.28 18.27L25.28 18.27Q24.89 18.27 24.61 18.00L24.61 18.00L24.61 18.00Q24.33 17.74 24.33 17.35L24.33 17.35L24.33 17.35Q24.33 16.97 24.61 16.68L24.61 16.68L24.61 16.68Q24.89 16.39 25.28 16.39L25.28 16.39L25.28 16.39Q25.68 16.39 25.96 16.68L25.96 16.68L25.96 16.68Q26.25 16.97 26.25 17.35L26.25 17.35ZM29.30 17.35L29.30 17.35Q29.30 17.72 29.02 18.00L29.02 18.00L29.02 18.00Q28.73 18.27 28.34 18.27L28.34 18.27L28.34 18.27Q27.94 18.27 27.66 18.00L27.66 18.00L27.66 18.00Q27.38 17.74 27.38 17.35L27.38 17.35L27.38 17.35Q27.38 16.97 27.66 16.68L27.66 16.68L27.66 16.68Q27.94 16.39 28.34 16.39L28.34 16.39L28.34 16.39Q28.73 16.39 29.02 16.68L29.02 16.68L29.02 16.68Q29.30 16.97 29.30 17.35L29.30 17.35ZM32.37 13.20L34.22 10.70L33.98 10.47L30.62 13.20L33.98 15.69L34.22 15.40L32.37 13.20ZM42.01 7.90L42.70 8.36L36.33 18.37L35.57 17.86L42.01 7.90ZM48.20 7.91L48.20 7.91Q50.01 7.91 50.95 8.90L50.95 8.90L50.95 8.90Q51.88 9.90 51.88 11.62L51.88 11.62L51.88 11.62Q51.88 13.47 50.71 14.95L50.71 14.95L50.71 14.95Q49.53 16.44 47.72 17.30L47.72 17.30L47.72 17.30Q45.91 18.16 44.06 18.27L44.06 18.27L44.06 10.43L45.79 9.86L45.79 17.39L45.79 17.39Q47.04 17.01 47.99 16.21L47.99 16.21L47.99 16.21Q48.94 15.40 49.48 14.28L49.48 14.28L49.48 14.28Q50.02 13.16 50.02 11.84L50.02 11.84L50.02 11.84Q50.02 10.46 49.33 9.63L49.33 9.63L49.33 9.63Q48.64 8.81 47.42 8.81L47.42 8.81L47.42 8.81Q46.45 8.81 45.41 9.26L45.41 9.26L45.41 9.26Q44.37 9.72 43.53 10.43L43.53 10.43L43.18 10.02L43.18 10.02Q44.07 9.14 45.46 8.53L45.46 8.53L45.46 8.53Q46.84 7.91 48.20 7.91L48.20 7.91ZM53.47 10.47L53.21 10.70L55.06 13.20L53.21 15.40L53.47 15.69L56.81 13.20L53.47 10.47Z"></path></g><!----><!----><g data-v-423bf9ae="" id="5f0f6355-8b55-49f1-902f-c773b663a6ce" fill="#000000" transform="matrix(4.882018294718444,0,0,4.882018294718444,-8.934091183996998,112.98372974877435)"><path d="M1.83 14.38L1.83 14.38L1.83 14.38Q1.83 13.87 2.00 13.07L2.00 13.07L2.00 13.07Q2.16 12.26 2.42 11.33L2.42 11.33L2.42 11.33Q2.67 10.40 3.01 9.43L3.01 9.43L3.01 9.43Q3.35 8.46 3.70 7.60L3.70 7.60L3.70 7.60Q4.05 6.75 4.38 6.10L4.38 6.10L4.38 6.10Q4.72 5.46 4.98 5.18L4.98 5.18L4.98 5.18Q5.12 5.19 5.36 5.29L5.36 5.29L5.36 5.29Q5.59 5.38 5.82 5.50L5.82 5.50L5.82 5.50Q6.06 5.63 6.26 5.78L6.26 5.78L6.26 5.78Q6.45 5.92 6.51 6.05L6.51 6.05L6.51 6.05Q6.10 6.41 5.71 7.15L5.71 7.15L5.71 7.15Q5.31 7.88 4.94 8.82L4.94 8.82L4.94 8.82Q4.56 9.76 4.24 10.80L4.24 10.80L4.24 10.80Q3.92 11.84 3.68 12.82L3.68 12.82L3.68 12.82Q3.44 13.80 3.31 14.64L3.31 14.64L3.31 14.64Q3.18 15.48 3.18 16.00L3.18 16.00L3.18 16.00Q3.18 16.24 3.22 16.30L3.22 16.30L3.22 16.30Q2.91 16.28 2.77 16.19L2.77 16.19L2.77 16.19Q2.63 16.10 2.56 16.00L2.56 16.00L2.56 16.00Q2.48 15.89 2.42 15.79L2.42 15.79L2.42 15.79Q2.35 15.68 2.23 15.62L2.23 15.62L2.23 15.62Q2.13 15.58 2.06 15.43L2.06 15.43L2.06 15.43Q1.99 15.27 1.94 15.09L1.94 15.09L1.94 15.09Q1.89 14.90 1.86 14.70L1.86 14.70L1.86 14.70Q1.83 14.50 1.83 14.38ZM18.61 16.21L18.61 16.21L18.61 16.21Q18.58 16.23 18.55 16.23L18.55 16.23L18.55 16.23Q18.52 16.23 18.44 16.23L18.44 16.23L18.44 16.23Q18.24 16.23 17.98 16.16L17.98 16.16L17.98 16.16Q17.72 16.10 17.48 16.01L17.48 16.01L17.48 16.01Q17.23 15.92 17.06 15.81L17.06 15.81L17.06 15.81Q16.88 15.69 16.84 15.61L16.84 15.61L16.84 15.61Q16.83 15.41 16.83 15.20L16.83 15.20L16.83 15.20Q16.83 14.99 16.83 14.80L16.83 14.80L16.83 14.80Q16.83 13.23 17.06 11.52L17.06 11.52L17.06 11.52Q17.29 9.81 17.82 7.83L17.82 7.83L17.82 7.83Q17.88 7.63 17.94 7.33L17.94 7.33L17.94 7.33Q18.00 7.03 18.07 6.68L18.07 6.68L18.07 6.68Q17.74 6.94 17.28 7.53L17.28 7.53L17.28 7.53Q16.81 8.11 16.30 8.90L16.30 8.90L16.30 8.90Q15.79 9.69 15.28 10.63L15.28 10.63L15.28 10.63Q14.77 11.58 14.35 12.55L14.35 12.55L14.35 12.55Q13.93 13.52 13.63 14.48L13.63 14.48L13.63 14.48Q13.33 15.43 13.26 16.24L13.26 16.24L13.26 16.24Q12.59 16.04 12.33 15.85L12.33 15.85L12.33 15.85Q12.07 15.65 12.07 15.37L12.07 15.37L12.07 15.37Q12.07 15.12 12.22 14.66L12.22 14.66L12.22 14.66Q12.38 14.20 12.66 13.57L12.66 13.57L12.66 13.57Q12.94 12.94 13.34 12.16L13.34 12.16L13.34 12.16Q13.75 11.38 14.24 10.49L14.24 10.49L14.24 10.49Q14.80 9.46 15.34 8.57L15.34 8.57L15.34 8.57Q15.88 7.67 16.39 6.94L16.39 6.94L16.39 6.94Q16.91 6.22 17.41 5.68L17.41 5.68L17.41 5.68Q17.91 5.15 18.40 4.87L18.40 4.87L18.40 4.87Q18.59 4.87 18.92 4.97L18.92 4.97L18.92 4.97Q19.25 5.07 19.56 5.21L19.56 5.21L19.56 5.21Q19.88 5.35 20.13 5.49L20.13 5.49L20.13 5.49Q20.37 5.64 20.40 5.74L20.40 5.74L20.40 5.74Q20.20 6.13 19.94 6.92L19.94 6.92L19.94 6.92Q19.67 7.70 19.40 8.69L19.40 8.69L19.40 8.69Q19.12 9.69 18.88 10.80L18.88 10.80L18.88 10.80Q18.63 11.91 18.49 12.94L18.49 12.94L18.49 12.94Q18.82 12.17 19.24 11.33L19.24 11.33L19.24 11.33Q19.67 10.50 20.15 9.68L20.15 9.68L20.15 9.68Q20.62 8.86 21.12 8.09L21.12 8.09L21.12 8.09Q21.62 7.32 22.09 6.69L22.09 6.69L22.09 6.69Q22.57 6.05 22.98 5.57L22.98 5.57L22.98 5.57Q23.39 5.10 23.72 4.87L23.72 4.87L23.72 4.87Q23.91 4.87 24.24 4.97L24.24 4.97L24.24 4.97Q24.57 5.07 24.88 5.21L24.88 5.21L24.88 5.21Q25.20 5.35 25.45 5.49L25.45 5.49L25.45 5.49Q25.69 5.64 25.72 5.74L25.72 5.74L25.72 5.74Q25.27 6.54 24.93 7.69L24.93 7.69L24.93 7.69Q24.60 8.83 24.37 10.09L24.37 10.09L24.37 10.09Q24.14 11.35 24.02 12.59L24.02 12.59L24.02 12.59Q23.90 13.83 23.90 14.81L23.90 14.81L23.90 14.81Q23.90 15.13 23.90 15.48L23.90 15.48L23.90 15.48Q23.90 15.83 23.93 16.21L23.93 16.21L23.93 16.21Q23.73 16.21 23.46 16.16L23.46 16.16L23.46 16.16Q23.18 16.11 22.93 16.03L22.93 16.03L22.93 16.03Q22.67 15.95 22.46 15.84L22.46 15.84L22.46 15.84Q22.25 15.74 22.16 15.61L22.16 15.61L22.16 15.61Q22.15 15.41 22.15 15.20L22.15 15.20L22.15 15.20Q22.15 14.99 22.15 14.80L22.15 14.80L22.15 14.80Q22.15 13.23 22.38 11.52L22.38 11.52L22.38 11.52Q22.61 9.81 23.14 7.83L23.14 7.83L23.14 7.83Q23.20 7.63 23.27 7.29L23.27 7.29L23.27 7.29Q23.34 6.96 23.41 6.59L23.41 6.59L23.41 6.59Q23.02 6.79 22.52 7.34L22.52 7.34L22.52 7.34Q22.02 7.90 21.51 8.69L21.51 8.69L21.51 8.69Q21 9.48 20.50 10.44L20.50 10.44L20.50 10.44Q20.01 11.41 19.61 12.41L19.61 12.41L19.61 12.41Q19.21 13.41 18.94 14.40L18.94 14.40L18.94 14.40Q18.66 15.39 18.61 16.21ZM33.64 16.24L33.64 16.24L33.64 16.24Q32.97 16.04 32.71 15.85L32.71 15.85L32.71 15.85Q32.45 15.65 32.45 15.36L32.45 15.36L32.45 15.36Q32.45 15.13 32.58 14.73L32.58 14.73L32.58 14.73Q32.70 14.32 32.95 13.77L32.95 13.77L32.95 13.77Q33.19 13.22 33.54 12.54L33.54 12.54L33.54 12.54Q33.88 11.87 34.31 11.10L34.31 11.10L34.31 11.10Q33.95 11.09 33.66 11.08L33.66 11.08L33.66 11.08Q33.38 11.07 33.19 11.07L33.19 11.07L33.19 11.07Q33.28 10.86 33.67 10.71L33.67 10.71L33.67 10.71Q34.06 10.56 34.71 10.44L34.71 10.44L34.71 10.44Q35.25 9.53 35.88 8.71L35.88 8.71L35.88 8.71Q36.50 7.88 37.13 7.19L37.13 7.19L37.13 7.19Q37.76 6.50 38.39 5.97L38.39 5.97L38.39 5.97Q39.02 5.45 39.59 5.14L39.59 5.14L39.59 5.14Q39.61 5.04 39.61 4.97L39.61 4.97L39.61 4.97Q39.62 4.90 39.62 4.87L39.62 4.87L39.62 4.87Q39.82 4.87 40.14 4.97L40.14 4.97L40.14 4.97Q40.47 5.07 40.79 5.21L40.79 5.21L40.79 5.21Q41.10 5.35 41.35 5.49L41.35 5.49L41.35 5.49Q41.59 5.64 41.62 5.74L41.62 5.74L41.62 5.74Q41.16 6.55 40.71 8.17L40.71 8.17L40.71 8.17Q40.26 9.79 39.97 12.04L39.97 12.04L39.97 12.04Q39.90 12.60 39.85 13.31L39.85 13.31L39.85 13.31Q39.80 14.03 39.80 14.91L39.80 14.91L39.80 14.91Q39.80 15.22 39.80 15.54L39.80 15.54L39.80 15.54Q39.80 15.86 39.83 16.21L39.83 16.21L39.83 16.21Q39.80 16.23 39.77 16.23L39.77 16.23L39.77 16.23Q39.75 16.23 39.66 16.23L39.66 16.23L39.66 16.23Q39.47 16.23 39.21 16.16L39.21 16.16L39.21 16.16Q38.95 16.10 38.70 16.01L38.70 16.01L38.70 16.01Q38.46 15.92 38.28 15.81L38.28 15.81L38.28 15.81Q38.11 15.69 38.07 15.61L38.07 15.61L38.07 15.61Q38.05 15.43 38.05 15.25L38.05 15.25L38.05 15.25Q38.05 15.08 38.05 14.88L38.05 14.88L38.05 14.88Q38.05 14.01 38.12 13.12L38.12 13.12L38.12 13.12Q38.18 12.22 38.33 11.27L38.33 11.27L38.33 11.27Q38.14 11.26 37.81 11.23L37.81 11.23L37.81 11.23Q37.49 11.21 37.09 11.20L37.09 11.20L37.09 11.20Q36.69 11.19 36.24 11.16L36.24 11.16L36.24 11.16Q35.78 11.14 35.35 11.13L35.35 11.13L35.35 11.13Q35.01 11.76 34.72 12.38L34.72 12.38L34.72 12.38Q34.43 13.01 34.22 13.64L34.22 13.64L34.22 13.64Q33.98 14.31 33.83 14.98L33.83 14.98L33.83 14.98Q33.68 15.65 33.64 16.24ZM39.05 7.83L39.05 7.83L39.05 7.83Q39.10 7.63 39.18 7.29L39.18 7.29L39.18 7.29Q39.26 6.94 39.33 6.57L39.33 6.57L39.33 6.57Q38.98 6.69 38.55 7.03L38.55 7.03L38.55 7.03Q38.12 7.36 37.67 7.86L37.67 7.86L37.67 7.86Q37.21 8.36 36.74 8.98L36.74 8.98L36.74 8.98Q36.27 9.60 35.84 10.30L35.84 10.30L35.84 10.30Q37.02 10.21 38.51 10.18L38.51 10.18L38.51 10.18Q38.63 9.59 38.76 9.01L38.76 9.01L38.76 9.01Q38.89 8.43 39.05 7.83ZM56.55 10.72L56.55 10.72L56.55 10.72Q56.91 10.72 57.12 10.98L57.12 10.98L57.12 10.98Q57.33 11.23 57.33 11.68L57.33 11.68L57.33 11.68Q57.33 11.79 57.32 11.91L57.32 11.91L57.32 11.91Q57.30 12.03 57.27 12.11L57.27 12.11L57.27 12.11Q56.98 12.04 56.63 12.03L56.63 12.03L56.63 12.03Q56.55 12.64 56.18 13.32L56.18 13.32L56.18 13.32Q55.82 14 55.30 14.60L55.30 14.60L55.30 14.60Q54.78 15.19 54.17 15.64L54.17 15.64L54.17 15.64Q53.55 16.09 52.95 16.24L52.95 16.24L52.95 16.24Q51.07 16.20 50.21 15.27L50.21 15.27L50.21 15.27Q49.35 14.34 49.35 12.36L49.35 12.36L49.35 12.36Q49.35 10.92 49.88 9.57L49.88 9.57L49.88 9.57Q50.41 8.22 51.30 7.17L51.30 7.17L51.30 7.17Q52.18 6.12 53.32 5.48L53.32 5.48L53.32 5.48Q54.46 4.84 55.69 4.84L55.69 4.84L55.69 4.84Q56.66 4.84 57.20 5.25L57.20 5.25L57.20 5.25Q57.74 5.66 57.74 6.40L57.74 6.40L57.74 6.40Q57.74 6.89 57.50 7.31L57.50 7.31L57.50 7.31Q57.27 7.73 56.74 8.22L56.74 8.22L56.74 8.22Q56.42 8.12 56.18 7.88L56.18 7.88L56.18 7.88Q55.94 7.63 55.89 7.31L55.89 7.31L55.89 7.31Q56.36 6.96 56.56 6.66L56.56 6.66L56.56 6.66Q56.76 6.37 56.76 5.96L56.76 5.96L56.76 5.96Q56.76 5.32 55.99 5.32L55.99 5.32L55.99 5.32Q55.36 5.32 54.63 5.79L54.63 5.79L54.63 5.79Q53.91 6.26 53.19 7.14L53.19 7.14L53.19 7.14Q52.15 8.39 51.67 9.71L51.67 9.71L51.67 9.71Q51.20 11.03 51.20 12.68L51.20 12.68L51.20 12.68Q51.20 13.30 51.32 13.80L51.32 13.80L51.32 13.80Q51.45 14.31 51.66 14.69L51.66 14.69L51.66 14.69Q51.87 15.06 52.16 15.29L52.16 15.29L52.16 15.29Q52.44 15.51 52.78 15.54L52.78 15.54L52.78 15.54Q53.23 15.44 53.68 15.09L53.68 15.09L53.68 15.09Q54.12 14.73 54.49 14.25L54.49 14.25L54.49 14.25Q54.87 13.76 55.13 13.21L55.13 13.21L55.13 13.21Q55.38 12.66 55.44 12.15L55.44 12.15L55.44 12.15Q55.05 12.24 54.69 12.31L54.69 12.31L54.69 12.31Q54.33 12.39 54.01 12.39L54.01 12.39L54.01 12.39Q53.59 12.39 53.28 12.18L53.28 12.18L53.28 12.18Q52.96 11.97 52.85 11.61L52.85 11.61L52.85 11.61Q53.10 11.47 53.59 11.31L53.59 11.31L53.59 11.31Q54.07 11.16 54.61 11.03L54.61 11.03L54.61 11.03Q55.16 10.89 55.69 10.81L55.69 10.81L55.69 10.81Q56.21 10.72 56.55 10.72ZM65.31 14.38L65.31 14.38L65.31 14.38Q65.31 13.87 65.47 13.07L65.47 13.07L65.47 13.07Q65.63 12.26 65.89 11.33L65.89 11.33L65.89 11.33Q66.15 10.40 66.49 9.43L66.49 9.43L66.49 9.43Q66.82 8.46 67.17 7.60L67.17 7.60L67.17 7.60Q67.52 6.75 67.86 6.10L67.86 6.10L67.86 6.10Q68.19 5.46 68.46 5.18L68.46 5.18L68.46 5.18Q68.60 5.19 68.83 5.29L68.83 5.29L68.83 5.29Q69.06 5.38 69.30 5.50L69.30 5.50L69.30 5.50Q69.54 5.63 69.73 5.78L69.73 5.78L69.73 5.78Q69.93 5.92 69.99 6.05L69.99 6.05L69.99 6.05Q69.58 6.41 69.18 7.15L69.18 7.15L69.18 7.15Q68.78 7.88 68.41 8.82L68.41 8.82L68.41 8.82Q68.04 9.76 67.72 10.80L67.72 10.80L67.72 10.80Q67.40 11.84 67.16 12.82L67.16 12.82L67.16 12.82Q66.92 13.80 66.79 14.64L66.79 14.64L66.79 14.64Q66.65 15.48 66.65 16.00L66.65 16.00L66.65 16.00Q66.65 16.24 66.70 16.30L66.70 16.30L66.70 16.30Q66.39 16.28 66.25 16.19L66.25 16.19L66.25 16.19Q66.11 16.10 66.03 16.00L66.03 16.00L66.03 16.00Q65.95 15.89 65.89 15.79L65.89 15.79L65.89 15.79Q65.83 15.68 65.70 15.62L65.70 15.62L65.70 15.62Q65.60 15.58 65.53 15.43L65.53 15.43L65.53 15.43Q65.46 15.27 65.41 15.09L65.41 15.09L65.41 15.09Q65.37 14.90 65.34 14.70L65.34 14.70L65.34 14.70Q65.31 14.50 65.31 14.38ZM77.55 16.24L77.55 16.24L77.55 16.24Q76.75 16.00 76.47 15.79L76.47 15.79L76.47 15.79Q76.19 15.57 76.19 15.19L76.19 15.19L76.19 15.19Q76.19 14.77 76.38 14.01L76.38 14.01L76.38 14.01Q76.58 13.24 76.89 12.31L76.89 12.31L76.89 12.31Q77.21 11.37 77.62 10.35L77.62 10.35L77.62 10.35Q78.02 9.32 78.44 8.39L78.44 8.39L78.44 8.39Q78.86 7.45 79.26 6.67L79.26 6.67L79.26 6.67Q79.66 5.89 79.97 5.46L79.97 5.46L79.87 4.87L79.87 4.87Q80.07 4.87 80.42 4.97L80.42 4.97L80.42 4.97Q80.77 5.07 81.12 5.21L81.12 5.21L81.12 5.21Q81.48 5.35 81.75 5.49L81.75 5.49L81.75 5.49Q82.03 5.64 82.05 5.74L82.05 5.74L82.05 5.74Q81.98 6.08 81.94 6.76L81.94 6.76L81.94 6.76Q81.90 7.43 81.90 8.20L81.90 8.20L81.90 8.20Q81.90 9.73 82.02 11.19L82.02 11.19L82.02 11.19Q82.14 12.66 82.57 14.17L82.57 14.17L82.57 14.17Q82.80 13.05 83.05 11.94L83.05 11.94L83.05 11.94Q83.31 10.82 83.59 9.81L83.59 9.81L83.59 9.81Q83.87 8.79 84.15 7.92L84.15 7.92L84.15 7.92Q84.43 7.06 84.69 6.40L84.69 6.40L84.69 6.40Q84.95 5.75 85.18 5.38L85.18 5.38L85.18 5.38Q85.40 5.01 85.58 4.98L85.58 4.98L85.58 4.98Q85.74 5.01 85.92 5.10L85.92 5.10L85.92 5.10Q86.10 5.19 86.27 5.32L86.27 5.32L86.27 5.32Q86.44 5.45 86.58 5.60L86.58 5.60L86.58 5.60Q86.72 5.75 86.80 5.91L86.80 5.91L86.80 5.91Q86.35 6.09 85.91 6.76L85.91 6.76L85.91 6.76Q85.47 7.43 85.07 8.39L85.07 8.39L85.07 8.39Q84.67 9.35 84.33 10.47L84.33 10.47L84.33 10.47Q83.99 11.59 83.73 12.68L83.73 12.68L83.73 12.68Q83.47 13.76 83.32 14.69L83.32 14.69L83.32 14.69Q83.17 15.61 83.16 16.17L83.16 16.17L83.16 16.17Q83.16 16.20 83.17 16.21L83.17 16.21L83.17 16.21Q83.13 16.23 83.08 16.23L83.08 16.23L83.08 16.23Q83.03 16.23 82.99 16.23L82.99 16.23L82.99 16.23Q82.35 16.23 81.85 16.07L81.85 16.07L81.85 16.07Q81.35 15.90 81.20 15.61L81.20 15.61L81.20 15.61Q80.91 14.43 80.71 13.34L80.71 13.34L80.71 13.34Q80.51 12.25 80.38 11.16L80.38 11.16L80.38 11.16Q80.25 10.07 80.17 8.95L80.17 8.95L80.17 8.95Q80.09 7.84 80.05 6.62L80.05 6.62L80.05 6.62Q79.79 7.04 79.49 7.72L79.49 7.72L79.49 7.72Q79.20 8.40 78.92 9.21L78.92 9.21L78.92 9.21Q78.64 10.02 78.38 10.92L78.38 10.92L78.38 10.92Q78.12 11.82 77.92 12.67L77.92 12.67L77.92 12.67Q77.73 13.52 77.62 14.29L77.62 14.29L77.62 14.29Q77.50 15.05 77.50 15.61L77.50 15.61L77.50 15.61Q77.50 15.90 77.51 16.03L77.51 16.03L77.51 16.03Q77.52 16.16 77.55 16.24ZM98.64 9.21L98.64 9.21L98.64 9.21Q99.11 9.21 99.36 9.46L99.36 9.46L99.36 9.46Q99.62 9.72 99.62 10.16L99.62 10.16L99.62 10.16Q99.62 10.28 99.60 10.39L99.60 10.39L99.60 10.39Q99.58 10.51 99.55 10.60L99.55 10.60L99.55 10.60Q99.37 10.57 99.15 10.55L99.15 10.55L99.15 10.55Q98.92 10.53 98.62 10.53L98.62 10.53L98.62 10.53Q98.01 10.53 97.40 10.63L97.40 10.63L97.40 10.63Q96.78 10.74 96.22 10.81L96.22 10.81L96.22 10.81Q95.90 11.55 95.63 12.24L95.63 12.24L95.63 12.24Q95.37 12.94 95.18 13.51L95.18 13.51L95.18 13.51Q94.99 14.08 94.88 14.50L94.88 14.50L94.88 14.50Q94.78 14.92 94.77 15.13L94.77 15.13L94.77 15.13Q95.90 14.90 97.05 14.73L97.05 14.73L97.05 14.73Q98.21 14.56 99.48 14.48L99.48 14.48L99.48 14.48Q99.64 14.71 99.74 14.99L99.74 14.99L99.74 14.99Q99.85 15.27 99.85 15.60L99.85 15.60L99.85 15.60Q99.85 15.68 99.85 15.78L99.85 15.78L99.85 15.78Q99.85 15.88 99.82 15.97L99.82 15.97L99.82 15.97Q99.43 15.96 98.99 15.95L98.99 15.95L98.99 15.95Q98.56 15.95 97.86 15.95L97.86 15.95L97.86 15.95Q97.40 15.95 96.98 15.97L96.98 15.97L96.98 15.97Q96.57 15.99 96.15 16.03L96.15 16.03L96.15 16.03Q95.73 16.07 95.26 16.14L95.26 16.14L95.26 16.14Q94.79 16.21 94.21 16.31L94.21 16.31L94.21 16.31Q93.56 16.06 92.96 15.08L92.96 15.08L92.96 15.08Q93.20 14.57 93.63 13.54L93.63 13.54L93.63 13.54Q94.05 12.52 94.71 10.79L94.71 10.79L94.71 10.79Q94.08 10.60 93.88 10.09L93.88 10.09L93.88 10.09Q93.95 10.02 94.29 9.92L94.29 9.92L94.29 9.92Q94.63 9.81 95.12 9.70L95.12 9.70L95.12 9.70Q95.33 9.16 95.47 8.75L95.47 8.75L95.47 8.75Q95.62 8.34 95.73 7.99L95.73 7.99L95.73 7.99Q95.84 7.63 95.93 7.29L95.93 7.29L95.93 7.29Q96.03 6.94 96.11 6.54L96.11 6.54L96.11 6.54Q95.62 6.51 95.34 6.27L95.34 6.27L95.34 6.27Q95.06 6.02 95.06 5.63L95.06 5.63L95.06 5.63Q95.06 5.52 95.09 5.36L95.09 5.36L95.09 5.36Q95.13 5.21 95.17 5.10L95.17 5.10L95.17 5.10Q95.45 5.14 95.71 5.15L95.71 5.15L95.71 5.15Q95.97 5.17 96.39 5.17L96.39 5.17L96.39 5.17Q97.27 5.17 98.04 5.12L98.04 5.12L98.04 5.12Q98.81 5.07 99.43 5.01L99.43 5.01L99.43 5.01Q100.06 4.96 100.51 4.91L100.51 4.91L100.51 4.91Q100.95 4.86 101.19 4.86L101.19 4.86L101.19 4.86Q101.51 4.86 101.77 5.19L101.77 5.19L101.77 5.19Q102.02 5.53 102.14 6.15L102.14 6.15L102.14 6.15Q101.71 6.10 101.44 6.09L101.44 6.09L101.44 6.09Q101.16 6.08 100.95 6.08L100.95 6.08L100.95 6.08Q100.18 6.08 99.55 6.15L99.55 6.15L99.55 6.15Q98.91 6.23 98.32 6.31L98.32 6.31L98.32 6.31Q98.24 6.44 98.13 6.64L98.13 6.64L98.13 6.64Q98.03 6.83 97.86 7.18L97.86 7.18L97.86 7.18Q97.69 7.53 97.45 8.06L97.45 8.06L97.45 8.06Q97.20 8.60 96.85 9.39L96.85 9.39L96.85 9.39Q97.38 9.31 97.85 9.26L97.85 9.26L97.85 9.26Q98.32 9.21 98.64 9.21ZM108.98 12.54L108.98 12.54L108.98 12.54Q108.98 12.17 109.18 11.45L109.18 11.45L109.18 11.45Q109.38 10.72 109.70 9.85L109.70 9.85L109.70 9.85Q110.03 8.97 110.43 8.04L110.43 8.04L110.43 8.04Q110.84 7.11 111.25 6.30L111.25 6.30L111.25 6.30Q111.66 5.49 112.04 4.89L112.04 4.89L112.04 4.89Q112.42 4.30 112.70 4.10L112.70 4.10L112.70 4.10Q112.92 4.14 113.18 4.30L113.18 4.30L113.18 4.30Q113.44 4.47 113.67 4.67L113.67 4.67L113.67 4.67Q113.89 4.87 114.06 5.10L114.06 5.10L114.06 5.10Q114.23 5.32 114.25 5.49L114.25 5.49L114.25 5.49Q113.54 6.08 112.84 6.95L112.84 6.95L112.84 6.95Q112.14 7.83 111.54 8.89L111.54 8.89L111.54 8.89Q110.95 9.95 110.50 11.16L110.50 11.16L110.50 11.16Q110.05 12.38 109.83 13.64L109.83 13.64L109.83 13.64Q109.66 13.59 109.50 13.53L109.50 13.53L109.50 13.53Q109.34 13.47 109.23 13.36L109.23 13.36L109.23 13.36Q109.12 13.24 109.05 13.05L109.05 13.05L109.05 13.05Q108.98 12.85 108.98 12.54ZM108.67 16.25L108.67 16.25L108.67 16.25Q108.50 16.25 108.35 16.18L108.35 16.18L108.35 16.18Q108.19 16.10 108.07 16.00L108.07 16.00L108.07 16.00Q107.95 15.89 107.88 15.77L107.88 15.77L107.88 15.77Q107.81 15.65 107.81 15.58L107.81 15.58L107.81 15.58Q107.81 15.41 107.86 15.15L107.86 15.15L107.86 15.15Q107.90 14.88 107.98 14.64L107.98 14.64L107.98 14.64Q108.07 14.39 108.19 14.22L108.19 14.22L108.19 14.22Q108.32 14.04 108.47 14.04L108.47 14.04L108.47 14.04Q108.86 14.04 109.26 14.31L109.26 14.31L109.26 14.31Q109.66 14.59 109.86 14.92L109.86 14.92L109.86 14.92Q109.69 15.11 109.56 15.34L109.56 15.34L109.56 15.34Q109.44 15.57 109.31 15.77L109.31 15.77L109.31 15.77Q109.19 15.97 109.03 16.11L109.03 16.11L109.03 16.11Q108.88 16.25 108.67 16.25ZM139.44 7.46L139.44 7.46L139.44 7.46Q139.44 8.13 139.14 8.73L139.14 8.73L139.14 8.73Q138.84 9.32 138.31 9.79L138.31 9.79L138.31 9.79Q137.77 10.26 137.06 10.58L137.06 10.58L137.06 10.58Q136.35 10.91 135.51 11.02L135.51 11.02L135.51 11.02Q135.72 11.65 136.02 12.31L136.02 12.31L136.02 12.31Q136.32 12.98 136.67 13.59L136.67 13.59L136.67 13.59Q137.02 14.21 137.40 14.73L137.40 14.73L137.40 14.73Q137.77 15.25 138.14 15.58L138.14 15.58L138.14 15.58Q138.07 15.72 137.93 15.86L137.93 15.86L137.93 15.86Q137.80 16.00 137.63 16.12L137.63 16.12L137.63 16.12Q137.45 16.24 137.26 16.32L137.26 16.32L137.26 16.32Q137.07 16.39 136.91 16.39L136.91 16.39L136.91 16.39Q136.60 16.39 136.32 16.10L136.32 16.10L136.32 16.10Q136.04 15.81 135.75 15.17L135.75 15.17L135.75 15.17Q135.46 14.53 135.15 13.52L135.15 13.52L135.15 13.52Q134.83 12.50 134.46 11.07L134.46 11.07L134.46 11.07Q134.30 11.07 134.15 11.07L134.15 11.07L134.15 11.07Q133.99 11.07 133.91 11.05L133.91 11.05L133.91 11.05Q133.81 10.99 133.70 10.85L133.70 10.85L133.70 10.85Q133.32 11.66 133.03 12.38L133.03 12.38L133.03 12.38Q132.73 13.09 132.50 13.76L132.50 13.76L132.50 13.76Q132.27 14.42 132.10 15.04L132.10 15.04L132.10 15.04Q131.92 15.67 131.80 16.31L131.80 16.31L131.80 16.31Q131.32 16.20 130.97 15.90L130.97 15.90L130.97 15.90Q130.62 15.61 130.31 15.08L130.31 15.08L130.31 15.08Q130.37 14.95 130.43 14.83L130.43 14.83L130.43 14.83Q130.49 14.71 130.59 14.50L130.59 14.50L130.59 14.50Q130.69 14.28 130.84 13.94L130.84 13.94L130.84 13.94Q130.98 13.61 131.23 13.05L131.23 13.05L131.23 13.05Q131.47 12.49 131.82 11.68L131.82 11.68L131.82 11.68Q132.16 10.86 132.65 9.70L132.65 9.70L132.65 9.70Q132.87 9.18 133.03 8.79L133.03 8.79L133.03 8.79Q133.20 8.40 133.32 8.04L133.32 8.04L133.32 8.04Q133.45 7.69 133.55 7.33L133.55 7.33L133.55 7.33Q133.66 6.97 133.77 6.51L133.77 6.51L133.77 6.51Q133.13 6.73 132.57 7.01L132.57 7.01L132.57 7.01Q132.02 7.28 131.66 7.59L131.66 7.59L131.66 7.59Q131.53 7.50 131.40 7.34L131.40 7.34L131.40 7.34Q131.26 7.17 131.15 6.96L131.15 6.96L131.15 6.96Q131.04 6.76 130.96 6.55L130.96 6.55L130.96 6.55Q130.87 6.34 130.86 6.17L130.86 6.17L130.86 6.17Q131.28 5.89 131.89 5.66L131.89 5.66L131.89 5.66Q132.50 5.42 133.18 5.24L133.18 5.24L133.18 5.24Q133.87 5.07 134.58 4.97L134.58 4.97L134.58 4.97Q135.30 4.87 135.91 4.87L135.91 4.87L135.91 4.87Q137.59 4.87 138.52 5.56L138.52 5.56L138.52 5.56Q139.44 6.26 139.44 7.46ZM135.86 6.02L136.02 6.29L136.02 6.29Q135.93 6.41 135.72 6.79L135.72 6.79L135.72 6.79Q135.51 7.17 135.23 7.69L135.23 7.69L135.23 7.69Q134.96 8.22 134.66 8.83L134.66 8.83L134.66 8.83Q134.36 9.45 134.08 10.05L134.08 10.05L134.08 10.05Q135.13 10.05 136.01 9.86L136.01 9.86L136.01 9.86Q136.89 9.66 137.54 9.30L137.54 9.30L137.54 9.30Q138.18 8.95 138.54 8.46L138.54 8.46L138.54 8.46Q138.89 7.98 138.89 7.39L138.89 7.39L138.89 7.39Q138.89 6.69 138.39 6.32L138.39 6.32L138.39 6.32Q137.89 5.95 136.84 5.95L136.84 5.95L136.84 5.95Q136.60 5.95 136.36 5.97L136.36 5.97L136.36 5.97Q136.12 5.99 135.86 6.02L135.86 6.02ZM152.26 9.21L152.26 9.21L152.26 9.21Q152.73 9.21 152.98 9.46L152.98 9.46L152.98 9.46Q153.24 9.72 153.24 10.16L153.24 10.16L153.24 10.16Q153.24 10.28 153.22 10.39L153.22 10.39L153.22 10.39Q153.20 10.51 153.17 10.60L153.17 10.60L153.17 10.60Q152.99 10.57 152.77 10.55L152.77 10.55L152.77 10.55Q152.54 10.53 152.24 10.53L152.24 10.53L152.24 10.53Q151.63 10.53 151.02 10.63L151.02 10.63L151.02 10.63Q150.40 10.74 149.84 10.81L149.84 10.81L149.84 10.81Q149.52 11.55 149.25 12.24L149.25 12.24L149.25 12.24Q148.99 12.94 148.80 13.51L148.80 13.51L148.80 13.51Q148.61 14.08 148.50 14.50L148.50 14.50L148.50 14.50Q148.40 14.92 148.39 15.13L148.39 15.13L148.39 15.13Q149.52 14.90 150.67 14.73L150.67 14.73L150.67 14.73Q151.83 14.56 153.10 14.48L153.10 14.48L153.10 14.48Q153.26 14.71 153.36 14.99L153.36 14.99L153.36 14.99Q153.47 15.27 153.47 15.60L153.47 15.60L153.47 15.60Q153.47 15.68 153.47 15.78L153.47 15.78L153.47 15.78Q153.47 15.88 153.44 15.97L153.44 15.97L153.44 15.97Q153.05 15.96 152.61 15.95L152.61 15.95L152.61 15.95Q152.18 15.95 151.48 15.95L151.48 15.95L151.48 15.95Q151.02 15.95 150.60 15.97L150.60 15.97L150.60 15.97Q150.19 15.99 149.77 16.03L149.77 16.03L149.77 16.03Q149.35 16.07 148.88 16.14L148.88 16.14L148.88 16.14Q148.41 16.21 147.83 16.31L147.83 16.31L147.83 16.31Q147.18 16.06 146.58 15.08L146.58 15.08L146.58 15.08Q146.82 14.57 147.24 13.54L147.24 13.54L147.24 13.54Q147.67 12.52 148.33 10.79L148.33 10.79L148.33 10.79Q147.70 10.60 147.50 10.09L147.50 10.09L147.50 10.09Q147.57 10.02 147.91 9.92L147.91 9.92L147.91 9.92Q148.25 9.81 148.74 9.70L148.74 9.70L148.74 9.70Q148.95 9.16 149.09 8.75L149.09 8.75L149.09 8.75Q149.24 8.34 149.35 7.99L149.35 7.99L149.35 7.99Q149.46 7.63 149.55 7.29L149.55 7.29L149.55 7.29Q149.65 6.94 149.73 6.54L149.73 6.54L149.73 6.54Q149.24 6.51 148.96 6.27L148.96 6.27L148.96 6.27Q148.68 6.02 148.68 5.63L148.68 5.63L148.68 5.63Q148.68 5.52 148.71 5.36L148.71 5.36L148.71 5.36Q148.75 5.21 148.79 5.10L148.79 5.10L148.79 5.10Q149.07 5.14 149.33 5.15L149.33 5.15L149.33 5.15Q149.59 5.17 150.01 5.17L150.01 5.17L150.01 5.17Q150.89 5.17 151.66 5.12L151.66 5.12L151.66 5.12Q152.43 5.07 153.05 5.01L153.05 5.01L153.05 5.01Q153.68 4.96 154.13 4.91L154.13 4.91L154.13 4.91Q154.57 4.86 154.81 4.86L154.81 4.86L154.81 4.86Q155.13 4.86 155.39 5.19L155.39 5.19L155.39 5.19Q155.64 5.53 155.76 6.15L155.76 6.15L155.76 6.15Q155.33 6.10 155.06 6.09L155.06 6.09L155.06 6.09Q154.78 6.08 154.57 6.08L154.57 6.08L154.57 6.08Q153.80 6.08 153.17 6.15L153.17 6.15L153.17 6.15Q152.53 6.23 151.94 6.31L151.94 6.31L151.94 6.31Q151.86 6.44 151.75 6.64L151.75 6.64L151.75 6.64Q151.65 6.83 151.48 7.18L151.48 7.18L151.48 7.18Q151.31 7.53 151.07 8.06L151.07 8.06L151.07 8.06Q150.82 8.60 150.47 9.39L150.47 9.39L150.47 9.39Q151.00 9.31 151.47 9.26L151.47 9.26L151.47 9.26Q151.94 9.21 152.26 9.21ZM162.64 16.24L162.64 16.24L162.64 16.24Q161.97 16.04 161.71 15.85L161.71 15.85L161.71 15.85Q161.45 15.65 161.45 15.36L161.45 15.36L161.45 15.36Q161.45 15.13 161.57 14.73L161.57 14.73L161.57 14.73Q161.70 14.32 161.94 13.77L161.94 13.77L161.94 13.77Q162.19 13.22 162.53 12.54L162.53 12.54L162.53 12.54Q162.88 11.87 163.31 11.10L163.31 11.10L163.31 11.10Q162.95 11.09 162.66 11.08L162.66 11.08L162.66 11.08Q162.37 11.07 162.19 11.07L162.19 11.07L162.19 11.07Q162.27 10.86 162.67 10.71L162.67 10.71L162.67 10.71Q163.06 10.56 163.70 10.44L163.70 10.44L163.70 10.44Q164.25 9.53 164.87 8.71L164.87 8.71L164.87 8.71Q165.49 7.88 166.12 7.19L166.12 7.19L166.12 7.19Q166.75 6.50 167.38 5.97L167.38 5.97L167.38 5.97Q168.01 5.45 168.59 5.14L168.59 5.14L168.59 5.14Q168.60 5.04 168.61 4.97L168.61 4.97L168.61 4.97Q168.62 4.90 168.62 4.87L168.62 4.87L168.62 4.87Q168.81 4.87 169.14 4.97L169.14 4.97L169.14 4.97Q169.47 5.07 169.78 5.21L169.78 5.21L169.78 5.21Q170.10 5.35 170.34 5.49L170.34 5.49L170.34 5.49Q170.59 5.64 170.62 5.74L170.62 5.74L170.62 5.74Q170.16 6.55 169.71 8.17L169.71 8.17L169.71 8.17Q169.26 9.79 168.97 12.04L168.97 12.04L168.97 12.04Q168.90 12.60 168.85 13.31L168.85 13.31L168.85 13.31Q168.80 14.03 168.80 14.91L168.80 14.91L168.80 14.91Q168.80 15.22 168.80 15.54L168.80 15.54L168.80 15.54Q168.80 15.86 168.83 16.21L168.83 16.21L168.83 16.21Q168.80 16.23 168.77 16.23L168.77 16.23L168.77 16.23Q168.74 16.23 168.66 16.23L168.66 16.23L168.66 16.23Q168.46 16.23 168.20 16.16L168.20 16.16L168.20 16.16Q167.94 16.10 167.70 16.01L167.70 16.01L167.70 16.01Q167.45 15.92 167.28 15.81L167.28 15.81L167.28 15.81Q167.10 15.69 167.06 15.61L167.06 15.61L167.06 15.61Q167.05 15.43 167.05 15.25L167.05 15.25L167.05 15.25Q167.05 15.08 167.05 14.88L167.05 14.88L167.05 14.88Q167.05 14.01 167.11 13.12L167.11 13.12L167.11 13.12Q167.17 12.22 167.33 11.27L167.33 11.27L167.33 11.27Q167.13 11.26 166.81 11.23L166.81 11.23L166.81 11.23Q166.49 11.21 166.09 11.20L166.09 11.20L166.09 11.20Q165.69 11.19 165.23 11.16L165.23 11.16L165.23 11.16Q164.78 11.14 164.35 11.13L164.35 11.13L164.35 11.13Q164.01 11.76 163.72 12.38L163.72 12.38L163.72 12.38Q163.42 13.01 163.21 13.64L163.21 13.64L163.21 13.64Q162.97 14.31 162.83 14.98L162.83 14.98L162.83 14.98Q162.68 15.65 162.64 16.24ZM168.04 7.83L168.04 7.83L168.04 7.83Q168.10 7.63 168.17 7.29L168.17 7.29L168.17 7.29Q168.25 6.94 168.32 6.57L168.32 6.57L168.32 6.57Q167.97 6.69 167.54 7.03L167.54 7.03L167.54 7.03Q167.12 7.36 166.66 7.86L166.66 7.86L166.66 7.86Q166.21 8.36 165.74 8.98L165.74 8.98L165.74 8.98Q165.27 9.60 164.84 10.30L164.84 10.30L164.84 10.30Q166.01 10.21 167.51 10.18L167.51 10.18L167.51 10.18Q167.62 9.59 167.75 9.01L167.75 9.01L167.75 9.01Q167.89 8.43 168.04 7.83ZM183.20 14.38L183.20 14.38L183.20 14.38Q183.55 14.98 183.55 15.54L183.55 15.54L183.55 15.54Q183.55 15.67 183.53 15.77L183.53 15.77L183.53 15.77Q183.51 15.88 183.48 15.99L183.48 15.99L183.48 15.99Q183.25 15.96 182.99 15.95L182.99 15.95L182.99 15.95Q182.73 15.93 182.45 15.93L182.45 15.93L182.45 15.93Q182.11 15.93 181.77 15.95L181.77 15.95L181.77 15.95Q181.43 15.97 181.01 16.02L181.01 16.02L181.01 16.02Q180.59 16.06 180.07 16.13L180.07 16.13L180.07 16.13Q179.55 16.20 178.86 16.31L178.86 16.31L178.86 16.31Q178.54 16.20 178.22 15.87L178.22 15.87L178.22 15.87Q177.90 15.54 177.62 15.08L177.62 15.08L177.62 15.08Q177.76 14.77 177.97 14.31L177.97 14.31L177.97 14.31Q178.18 13.86 178.46 13.21L178.46 13.21L178.46 13.21Q178.74 12.56 179.08 11.68L179.08 11.68L179.08 11.68Q179.42 10.81 179.82 9.66L179.82 9.66L179.82 9.66Q180.07 8.90 180.25 8.33L180.25 8.33L180.25 8.33Q180.43 7.76 180.58 7.22L180.58 7.22L180.58 7.22Q180.73 6.68 180.87 6.09L180.87 6.09L180.87 6.09Q181.01 5.50 181.17 4.73L181.17 4.73L181.17 4.73Q181.73 4.84 182.15 5.14L182.15 5.14L182.15 5.14Q182.56 5.45 182.94 6.01L182.94 6.01L182.94 6.01Q182.83 6.19 182.64 6.59L182.64 6.59L182.64 6.59Q182.46 7 182.22 7.58L182.22 7.58L182.22 7.58Q181.97 8.16 181.68 8.90L181.68 8.90L181.68 8.90Q181.38 9.63 181.06 10.47L181.06 10.47L181.06 10.47Q180.75 11.30 180.46 12.03L180.46 12.03L180.46 12.03Q180.17 12.75 179.94 13.34L179.94 13.34L179.94 13.34Q179.70 13.93 179.56 14.35L179.56 14.35L179.56 14.35Q179.42 14.77 179.42 14.98L179.42 14.98L179.42 14.98Q179.65 14.97 179.83 14.95L179.83 14.95L179.83 14.95Q180.01 14.94 180.21 14.90L180.21 14.90L180.21 14.90Q180.40 14.87 180.63 14.82L180.63 14.82L180.63 14.82Q180.87 14.77 181.19 14.69L181.19 14.69L181.19 14.69Q181.47 14.62 181.71 14.57L181.71 14.57L181.71 14.57Q181.94 14.52 182.17 14.48L182.17 14.48L182.17 14.48Q182.41 14.45 182.65 14.43L182.65 14.43L182.65 14.43Q182.90 14.41 183.20 14.38ZM192.16 14.38L192.16 14.38L192.16 14.38Q192.16 13.87 192.32 13.07L192.32 13.07L192.32 13.07Q192.49 12.26 192.74 11.33L192.74 11.33L192.74 11.33Q193.00 10.40 193.34 9.43L193.34 9.43L193.34 9.43Q193.68 8.46 194.03 7.60L194.03 7.60L194.03 7.60Q194.38 6.75 194.71 6.10L194.71 6.10L194.71 6.10Q195.05 5.46 195.31 5.18L195.31 5.18L195.31 5.18Q195.45 5.19 195.68 5.29L195.68 5.29L195.68 5.29Q195.92 5.38 196.15 5.50L196.15 5.50L196.15 5.50Q196.39 5.63 196.59 5.78L196.59 5.78L196.59 5.78Q196.78 5.92 196.84 6.05L196.84 6.05L196.84 6.05Q196.43 6.41 196.03 7.15L196.03 7.15L196.03 7.15Q195.64 7.88 195.26 8.82L195.26 8.82L195.26 8.82Q194.89 9.76 194.57 10.80L194.57 10.80L194.57 10.80Q194.25 11.84 194.01 12.82L194.01 12.82L194.01 12.82Q193.77 13.80 193.64 14.64L193.64 14.64L193.64 14.64Q193.51 15.48 193.51 16.00L193.51 16.00L193.51 16.00Q193.51 16.24 193.55 16.30L193.55 16.30L193.55 16.30Q193.24 16.28 193.10 16.19L193.10 16.19L193.10 16.19Q192.96 16.10 192.88 16.00L192.88 16.00L192.88 16.00Q192.81 15.89 192.74 15.79L192.74 15.79L192.74 15.79Q192.68 15.68 192.56 15.62L192.56 15.62L192.56 15.62Q192.46 15.58 192.39 15.43L192.39 15.43L192.39 15.43Q192.32 15.27 192.27 15.09L192.27 15.09L192.27 15.09Q192.22 14.90 192.19 14.70L192.19 14.70L192.19 14.70Q192.16 14.50 192.16 14.38ZM205.93 6.69L205.93 6.69L205.93 6.69Q205.37 6.69 205.06 6.38L205.06 6.38L205.06 6.38Q204.76 6.06 204.76 5.61L204.76 5.61L204.76 5.61Q204.76 5.50 204.80 5.35L204.80 5.35L204.80 5.35Q204.83 5.19 204.89 5.08L204.89 5.08L204.89 5.08Q205.07 5.17 205.43 5.20L205.43 5.20L205.43 5.20Q205.79 5.24 206.26 5.24L206.26 5.24L206.26 5.24Q206.98 5.24 207.88 5.17L207.88 5.17L207.88 5.17Q208.78 5.11 209.61 5.04L209.61 5.04L209.61 5.04Q210.43 4.97 211.06 4.91L211.06 4.91L211.06 4.91Q211.69 4.84 211.88 4.84L211.88 4.84L211.88 4.84Q212.39 4.84 212.62 5.23L212.62 5.23L212.62 5.23Q212.86 5.61 212.97 6.26L212.97 6.26L212.97 6.26Q212.60 6.23 212.25 6.21L212.25 6.21L212.25 6.21Q211.89 6.19 211.64 6.19L211.64 6.19L211.64 6.19Q211.19 6.19 210.73 6.22L210.73 6.22L210.73 6.22Q210.28 6.24 209.82 6.30L209.82 6.30L209.82 6.30Q209.62 6.71 209.38 7.26L209.38 7.26L209.38 7.26Q209.15 7.81 208.91 8.41L208.91 8.41L208.91 8.41Q208.68 9.02 208.47 9.61L208.47 9.61L208.47 9.61Q208.26 10.21 208.11 10.68L208.11 10.68L208.11 10.68Q207.80 11.61 207.57 12.39L207.57 12.39L207.57 12.39Q207.34 13.17 207.16 13.85L207.16 13.85L207.16 13.85Q206.99 14.53 206.86 15.15L206.86 15.15L206.86 15.15Q206.74 15.76 206.64 16.35L206.64 16.35L206.64 16.35Q205.70 16.21 205.07 15.18L205.07 15.18L205.07 15.18Q205.18 14.74 205.34 14.23L205.34 14.23L205.34 14.23Q205.51 13.72 205.72 13.07L205.72 13.07L205.72 13.07Q205.94 12.42 206.23 11.59L206.23 11.59L206.23 11.59Q206.53 10.77 206.91 9.72L206.91 9.72L206.91 9.72Q207.05 9.32 207.20 8.90L207.20 8.90L207.20 8.90Q207.35 8.47 207.50 8.05L207.50 8.05L207.50 8.05Q207.65 7.63 207.77 7.24L207.77 7.24L207.77 7.24Q207.89 6.85 207.97 6.52L207.97 6.52L207.97 6.52Q207.38 6.59 206.86 6.64L206.86 6.64L206.86 6.64Q206.33 6.69 205.93 6.69ZM223.55 10.35L223.55 10.35L223.55 10.35Q224.60 9.20 225.43 7.91L225.43 7.91L225.43 7.91Q226.27 6.62 226.98 5.01L226.98 5.01L226.98 5.01Q227.35 5.05 227.68 5.21L227.68 5.21L227.68 5.21Q228.02 5.36 228.21 5.56L228.21 5.56L228.21 5.56Q227.44 6.48 226.82 7.24L226.82 7.24L226.82 7.24Q226.20 7.99 225.68 8.66L225.68 8.66L225.68 8.66Q225.16 9.32 224.72 9.93L224.72 9.93L224.72 9.93Q224.28 10.54 223.86 11.16L223.86 11.16L223.86 11.16Q223.65 11.87 223.47 12.60L223.47 12.60L223.47 12.60Q223.29 13.33 223.15 13.99L223.15 13.99L223.15 13.99Q223.01 14.66 222.93 15.22L222.93 15.22L222.93 15.22Q222.85 15.79 222.85 16.20L222.85 16.20L222.85 16.20Q222.70 16.20 222.36 16.14L222.36 16.14L222.36 16.14Q222.03 16.07 221.68 15.99L221.68 15.99L221.68 15.99Q221.33 15.90 221.04 15.82L221.04 15.82L221.04 15.82Q220.75 15.74 220.70 15.68L220.70 15.68L220.70 15.68Q220.92 15.30 221.14 14.75L221.14 14.75L221.14 14.75Q221.35 14.20 221.56 13.59L221.56 13.59L221.56 13.59Q221.77 12.98 221.97 12.36L221.97 12.36L221.97 12.36Q222.17 11.73 222.33 11.20L222.33 11.20L222.33 11.20Q221.98 10.11 221.65 9.15L221.65 9.15L221.65 9.15Q221.33 8.19 221.02 7.41L221.02 7.41L221.02 7.41Q220.71 6.64 220.43 6.08L220.43 6.08L220.43 6.08Q220.15 5.52 219.90 5.22L219.90 5.22L219.90 5.22Q220.04 5.17 220.32 5.11L220.32 5.11L220.32 5.11Q220.61 5.05 220.95 5.00L220.95 5.00L220.95 5.00Q221.30 4.94 221.65 4.91L221.65 4.91L221.65 4.91Q222.01 4.87 222.29 4.86L222.29 4.86L222.29 4.86Q222.29 5.21 222.35 5.71L222.35 5.71L222.35 5.71Q222.42 6.22 222.52 6.79L222.52 6.79L222.52 6.79Q222.63 7.36 222.77 7.95L222.77 7.95L222.77 7.95Q222.91 8.54 223.05 9.03L223.05 9.03L223.05 9.03Q223.19 9.52 223.32 9.88L223.32 9.88L223.32 9.88Q223.45 10.23 223.55 10.35ZM234.36 12.54L234.36 12.54L234.36 12.54Q234.36 12.17 234.56 11.45L234.56 11.45L234.56 11.45Q234.77 10.72 235.09 9.85L235.09 9.85L235.09 9.85Q235.41 8.97 235.82 8.04L235.82 8.04L235.82 8.04Q236.22 7.11 236.63 6.30L236.63 6.30L236.63 6.30Q237.05 5.49 237.43 4.89L237.43 4.89L237.43 4.89Q237.80 4.30 238.08 4.10L238.08 4.10L238.08 4.10Q238.31 4.14 238.57 4.30L238.57 4.30L238.57 4.30Q238.83 4.47 239.05 4.67L239.05 4.67L239.05 4.67Q239.27 4.87 239.44 5.10L239.44 5.10L239.44 5.10Q239.61 5.32 239.64 5.49L239.64 5.49L239.64 5.49Q238.92 6.08 238.22 6.95L238.22 6.95L238.22 6.95Q237.52 7.83 236.93 8.89L236.93 8.89L236.93 8.89Q236.33 9.95 235.89 11.16L235.89 11.16L235.89 11.16Q235.44 12.38 235.21 13.64L235.21 13.64L235.21 13.64Q235.05 13.59 234.88 13.53L234.88 13.53L234.88 13.53Q234.72 13.47 234.61 13.36L234.61 13.36L234.61 13.36Q234.50 13.24 234.43 13.05L234.43 13.05L234.43 13.05Q234.36 12.85 234.36 12.54ZM234.05 16.25L234.05 16.25L234.05 16.25Q233.88 16.25 233.73 16.18L233.73 16.18L233.73 16.18Q233.58 16.10 233.46 16.00L233.46 16.00L233.46 16.00Q233.34 15.89 233.27 15.77L233.27 15.77L233.27 15.77Q233.20 15.65 233.20 15.58L233.20 15.58L233.20 15.58Q233.20 15.41 233.24 15.15L233.24 15.15L233.24 15.15Q233.28 14.88 233.37 14.64L233.37 14.64L233.37 14.64Q233.45 14.39 233.58 14.22L233.58 14.22L233.58 14.22Q233.70 14.04 233.86 14.04L233.86 14.04L233.86 14.04Q234.25 14.04 234.65 14.31L234.65 14.31L234.65 14.31Q235.05 14.59 235.24 14.92L235.24 14.92L235.24 14.92Q235.07 15.11 234.95 15.34L234.95 15.34L234.95 15.34Q234.82 15.57 234.70 15.77L234.70 15.77L234.70 15.77Q234.57 15.97 234.42 16.11L234.42 16.11L234.42 16.11Q234.26 16.25 234.05 16.25Z"></path></g></svg>